{
	"asset":{
		"generator":"Khronos glTF Blender I/O v4.3.47",
		"version":"2.0"
	},
	"extensionsUsed":[
		"KHR_texture_transform"
	],
	"extensionsRequired":[
		"KHR_texture_transform"
	],
	"scene":0,
	"scenes":[
		{
			"name":"Scene",
			"nodes":[
				0
			]
		}
	],
	"nodes":[
		{
			"mesh":0,
			"name":"BlackQueen",
			"translation":[
				-0.6776629686355591,
				0.5628257393836975,
				-0.37126266956329346
			]
		}
	],
	"materials":[
		{
			"doubleSided":true,
			"name":"Wood Black UA",
			"normalTexture":{
				"extensions":{
					"KHR_texture_transform":{
						"offset":[
							-0.999999999999999,
							1.00000004371139
						],
						"rotation":1.5707963705062866,
						"scale":[
							10,
							1
						]
					}
				},
				"index":0
			},
			"pbrMetallicRoughness":{
				"baseColorTexture":{
					"extensions":{
						"KHR_texture_transform":{
							"offset":[
								-0.999999999999999,
								1.00000004371139
							],
							"rotation":1.5707963705062866,
							"scale":[
								10,
								1
							]
						}
					},
					"index":1
				},
				"metallicFactor":0,
				"metallicRoughnessTexture":{
					"extensions":{
						"KHR_texture_transform":{
							"offset":[
								-0.999999999999999,
								1.00000004371139
							],
							"rotation":1.5707963705062866,
							"scale":[
								10,
								1
							]
						}
					},
					"index":2
				}
			}
		}
	],
	"meshes":[
		{
			"name":"Cylinder.004",
			"primitives":[
				{
					"attributes":{
						"POSITION":0,
						"NORMAL":1,
						"TEXCOORD_0":2
					},
					"indices":3,
					"material":0
				}
			]
		}
	],
	"textures":[
		{
			"sampler":0,
			"source":0
		},
		{
			"sampler":0,
			"source":1
		},
		{
			"sampler":0,
			"source":2
		}
	],
	"images":[
		{
			"mimeType":"image/jpeg",
			"name":"Wood063_2K_Normal",
			"uri":"Wood063_2K_Normal.jpg"
		},
		{
			"mimeType":"image/jpeg",
			"name":"Wood063_2K_Color",
			"uri":"Wood063_2K_Color.jpg"
		},
		{
			"mimeType":"image/png",
			"name":"Wood063_2K_Roughness",
			"uri":"Wood063_2K_Roughness.png"
		}
	],
	"accessors":[
		{
			"bufferView":0,
			"componentType":5126,
			"count":1964,
			"max":[
				0.022414445877075195,
				0.033750951290130615,
				0.022416621446609497
			],
			"min":[
				-0.022417545318603516,
				-0.0565793514251709,
				-0.02241531014442444
			],
			"type":"VEC3"
		},
		{
			"bufferView":1,
			"componentType":5126,
			"count":1964,
			"type":"VEC3"
		},
		{
			"bufferView":2,
			"componentType":5126,
			"count":1964,
			"type":"VEC2"
		},
		{
			"bufferView":3,
			"componentType":5123,
			"count":10932,
			"type":"SCALAR"
		}
	],
	"bufferViews":[
		{
			"buffer":0,
			"byteLength":23568,
			"byteOffset":0,
			"target":34962
		},
		{
			"buffer":0,
			"byteLength":23568,
			"byteOffset":23568,
			"target":34962
		},
		{
			"buffer":0,
			"byteLength":15712,
			"byteOffset":47136,
			"target":34962
		},
		{
			"buffer":0,
			"byteLength":21864,
			"byteOffset":62848,
			"target":34963
		}
	],
	"samplers":[
		{
			"magFilter":9729,
			"minFilter":9987
		}
	],
	"buffers":[
		{
			"byteLength":84712,
			"uri":"Queen.bin"
		}
	]
}
