{
	"asset":{
		"generator":"Khronos glTF Blender I/O v4.3.47",
		"version":"2.0"
	},
	"extensionsUsed":[
		"KHR_texture_transform"
	],
	"extensionsRequired":[
		"KHR_texture_transform"
	],
	"scene":0,
	"scenes":[
		{
			"name":"Scene",
			"nodes":[
				0
			]
		}
	],
	"nodes":[
		{
			"mesh":0,
			"name":"BlackRook.003",
			"translation":[
				-0.8450939059257507,
				0.5388591885566711,
				-0.3702715039253235
			]
		}
	],
	"materials":[
		{
			"doubleSided":true,
			"name":"Wood Black UA",
			"normalTexture":{
				"extensions":{
					"KHR_texture_transform":{
						"offset":[
							-0.999999999999999,
							1.00000004371139
						],
						"rotation":1.5707963705062866,
						"scale":[
							10,
							1
						]
					}
				},
				"index":0
			},
			"pbrMetallicRoughness":{
				"baseColorTexture":{
					"extensions":{
						"KHR_texture_transform":{
							"offset":[
								-0.999999999999999,
								1.00000004371139
							],
							"rotation":1.5707963705062866,
							"scale":[
								10,
								1
							]
						}
					},
					"index":1
				},
				"metallicFactor":0,
				"metallicRoughnessTexture":{
					"extensions":{
						"KHR_texture_transform":{
							"offset":[
								-0.999999999999999,
								1.00000004371139
							],
							"rotation":1.5707963705062866,
							"scale":[
								10,
								1
							]
						}
					},
					"index":2
				}
			}
		}
	],
	"meshes":[
		{
			"name":"Cylinder.022",
			"primitives":[
				{
					"attributes":{
						"POSITION":0,
						"NORMAL":1,
						"TEXCOORD_0":2
					},
					"indices":3,
					"material":0
				}
			]
		}
	],
	"textures":[
		{
			"sampler":0,
			"source":0
		},
		{
			"sampler":0,
			"source":1
		},
		{
			"sampler":0,
			"source":2
		}
	],
	"images":[
		{
			"mimeType":"image/jpeg",
			"name":"Wood063_2K_Normal",
			"uri":"Wood063_2K_Normal.jpg"
		},
		{
			"mimeType":"image/jpeg",
			"name":"Wood063_2K_Color",
			"uri":"Wood063_2K_Color.jpg"
		},
		{
			"mimeType":"image/png",
			"name":"Wood063_2K_Roughness",
			"uri":"Wood063_2K_Roughness.png"
		}
	],
	"accessors":[
		{
			"bufferView":0,
			"componentType":5126,
			"count":972,
			"max":[
				0.019596099853515625,
				0.031148016452789307,
				0.019448071718215942
			],
			"min":[
				-0.01959526538848877,
				-0.03241682052612305,
				-0.01944783329963684
			],
			"type":"VEC3"
		},
		{
			"bufferView":1,
			"componentType":5126,
			"count":972,
			"type":"VEC3"
		},
		{
			"bufferView":2,
			"componentType":5126,
			"count":972,
			"type":"VEC2"
		},
		{
			"bufferView":3,
			"componentType":5123,
			"count":5316,
			"type":"SCALAR"
		}
	],
	"bufferViews":[
		{
			"buffer":0,
			"byteLength":11664,
			"byteOffset":0,
			"target":34962
		},
		{
			"buffer":0,
			"byteLength":11664,
			"byteOffset":11664,
			"target":34962
		},
		{
			"buffer":0,
			"byteLength":7776,
			"byteOffset":23328,
			"target":34962
		},
		{
			"buffer":0,
			"byteLength":10632,
			"byteOffset":31104,
			"target":34963
		}
	],
	"samplers":[
		{
			"magFilter":9729,
			"minFilter":9987
		}
	],
	"buffers":[
		{
			"byteLength":41736,
			"uri":"Rook.bin"
		}
	]
}
