{
	"asset":{
		"generator":"Khronos glTF Blender I/O v4.3.47",
		"version":"2.0"
	},
	"extensionsUsed":[
		"KHR_materials_clearcoat",
		"KHR_materials_specular",
		"KHR_materials_ior",
		"KHR_texture_transform"
	],
	"extensionsRequired":[
		"KHR_texture_transform"
	],
	"scene":0,
	"scenes":[
		{
			"name":"Scene",
			"nodes":[
				0,
				1
			]
		}
	],
	"nodes":[
		{
			"mesh":0,
			"name":"P\u00f6yt\u00e4",
			"scale":[
				-0.01838027685880661,
				-0.15445026755332947,
				-0.01838027685880661
			],
			"translation":[
				-0.6519991159439087,
				0.27875441312789917,
				-0.17740501463413239
			]
		},
		{
			"mesh":1,
			"name":"Shakkilauta",
			"scale":[
				0.22163861989974976,
				0.01685778982937336,
				0.22163861989974976
			],
			"translation":[
				-0.6501319408416748,
				0.4930794835090637,
				-0.17684121429920197
			]
		}
	],
	"materials":[
		{
			"doubleSided":true,
			"name":"Dark Wood",
			"normalTexture":{
				"extensions":{
					"KHR_texture_transform":{
						"offset":[
							0,
							-2
						],
						"scale":[
							3,
							3
						]
					}
				},
				"index":0,
				"scale":1.5000001192092896,
				"texCoord":1
			},
			"pbrMetallicRoughness":{
				"baseColorTexture":{
					"extensions":{
						"KHR_texture_transform":{
							"offset":[
								0,
								-2
							],
							"scale":[
								3,
								3
							]
						}
					},
					"index":1,
					"texCoord":1
				},
				"metallicFactor":0,
				"metallicRoughnessTexture":{
					"extensions":{
						"KHR_texture_transform":{
							"offset":[
								0,
								-2
							],
							"scale":[
								3,
								3
							]
						}
					},
					"index":2,
					"texCoord":1
				}
			}
		},
		{
			"doubleSided":true,
			"name":"Material.001",
			"pbrMetallicRoughness":{
				"baseColorFactor":[
					0.800000011920929,
					0.800000011920929,
					0.800000011920929,
					1
				],
				"metallicFactor":0,
				"roughnessFactor":0.5
			}
		},
		{
			"doubleSided":true,
			"extensions":{
				"KHR_materials_specular":{
					"specularFactor":0.4000000059604645
				},
				"KHR_materials_ior":{
					"ior":1.4500000476837158
				}
			},
			"name":"Wood.001",
			"normalTexture":{
				"index":3,
				"texCoord":1
			},
			"pbrMetallicRoughness":{
				"baseColorTexture":{
					"index":4,
					"texCoord":1
				},
				"metallicFactor":0.20000000298023224,
				"metallicRoughnessTexture":{
					"index":5,
					"texCoord":1
				}
			}
		},
		{
			"doubleSided":true,
			"name":"Wood",
			"normalTexture":{
				"index":6,
				"texCoord":1
			},
			"pbrMetallicRoughness":{
				"baseColorTexture":{
					"index":7,
					"texCoord":1
				},
				"metallicFactor":0,
				"metallicRoughnessTexture":{
					"index":8,
					"texCoord":1
				}
			}
		},
		{
			"doubleSided":true,
			"extensions":{
				"KHR_materials_clearcoat":{
					"clearcoatFactor":0.012500000186264515
				},
				"KHR_materials_specular":{
					"specularFactor":0.20000000298023224
				},
				"KHR_materials_ior":{
					"ior":1.4500000476837158
				}
			},
			"name":"Mahogany Wood",
			"pbrMetallicRoughness":{
				"metallicFactor":0,
				"roughnessFactor":0.30000001192092896
			}
		}
	],
	"meshes":[
		{
			"name":"Cube.002",
			"primitives":[
				{
					"attributes":{
						"POSITION":0,
						"NORMAL":1,
						"TEXCOORD_0":2,
						"TEXCOORD_1":3
					},
					"indices":4,
					"material":0
				}
			]
		},
		{
			"name":"Cube",
			"primitives":[
				{
					"attributes":{
						"POSITION":5,
						"NORMAL":6,
						"TEXCOORD_0":7,
						"TEXCOORD_1":8
					},
					"indices":9,
					"material":1
				},
				{
					"attributes":{
						"POSITION":10,
						"NORMAL":11,
						"TEXCOORD_0":12,
						"TEXCOORD_1":13
					},
					"indices":14,
					"material":2
				},
				{
					"attributes":{
						"POSITION":15,
						"NORMAL":16,
						"TEXCOORD_0":17,
						"TEXCOORD_1":18
					},
					"indices":19,
					"material":3
				},
				{
					"attributes":{
						"POSITION":20,
						"NORMAL":21,
						"TEXCOORD_0":22,
						"TEXCOORD_1":23
					},
					"indices":24,
					"material":4
				}
			]
		}
	],
	"textures":[
		{
			"sampler":0,
			"source":0
		},
		{
			"sampler":0,
			"source":1
		},
		{
			"sampler":0,
			"source":2
		},
		{
			"sampler":0,
			"source":3
		},
		{
			"sampler":0,
			"source":4
		},
		{
			"sampler":0,
			"source":5
		},
		{
			"sampler":0,
			"source":6
		},
		{
			"sampler":0,
			"source":7
		},
		{
			"sampler":0,
			"source":8
		}
	],
	"images":[
		{
			"mimeType":"image/jpeg",
			"name":"Wood_normal",
			"uri":"Wood_normal.jpg"
		},
		{
			"mimeType":"image/jpeg",
			"name":"Wood_diffuse",
			"uri":"Wood_diffuse.jpg"
		},
		{
			"mimeType":"image/png",
			"name":"Wood_roughness",
			"uri":"Wood_roughness.png"
		},
		{
			"mimeType":"image/jpeg",
			"name":"wood-78_bump",
			"uri":"wood-78_bump.jpg"
		},
		{
			"mimeType":"image/jpeg",
			"name":"wood-78_diffuse",
			"uri":"wood-78_diffuse.jpg"
		},
		{
			"mimeType":"image/png",
			"name":"wood-78_smooth",
			"uri":"wood-78_smooth.png"
		},
		{
			"mimeType":"image/jpeg",
			"name":"Wood056_2K_Normal",
			"uri":"Wood056_2K_Normal.jpg"
		},
		{
			"mimeType":"image/jpeg",
			"name":"Wood056_2K_Color",
			"uri":"Wood056_2K_Color.jpg"
		},
		{
			"mimeType":"image/png",
			"name":"Wood056_2K_Roughness",
			"uri":"Wood056_2K_Roughness.png"
		}
	],
	"accessors":[
		{
			"bufferView":0,
			"componentType":5126,
			"count":360,
			"max":[
				20.51619529724121,
				1.2556405067443848,
				20.516189575195312
			],
			"min":[
				-20.51619529724121,
				-1.3081486225128174,
				-20.516199111938477
			],
			"type":"VEC3"
		},
		{
			"bufferView":1,
			"componentType":5126,
			"count":360,
			"type":"VEC3"
		},
		{
			"bufferView":2,
			"componentType":5126,
			"count":360,
			"type":"VEC2"
		},
		{
			"bufferView":3,
			"componentType":5126,
			"count":360,
			"type":"VEC2"
		},
		{
			"bufferView":4,
			"componentType":5123,
			"count":1050,
			"type":"SCALAR"
		},
		{
			"bufferView":5,
			"componentType":5126,
			"count":264,
			"max":[
				1.149852991104126,
				0.7878196835517883,
				1.149852991104126
			],
			"min":[
				-1.149852991104126,
				-0.7570308446884155,
				-1.149852991104126
			],
			"type":"VEC3"
		},
		{
			"bufferView":6,
			"componentType":5126,
			"count":264,
			"type":"VEC3"
		},
		{
			"bufferView":7,
			"componentType":5126,
			"count":264,
			"type":"VEC2"
		},
		{
			"bufferView":8,
			"componentType":5126,
			"count":264,
			"type":"VEC2"
		},
		{
			"bufferView":9,
			"componentType":5123,
			"count":804,
			"type":"SCALAR"
		},
		{
			"bufferView":10,
			"componentType":5126,
			"count":79,
			"max":[
				1,
				0.7878196835517883,
				1
			],
			"min":[
				-1,
				0.7878196835517883,
				-1
			],
			"type":"VEC3"
		},
		{
			"bufferView":11,
			"componentType":5126,
			"count":79,
			"type":"VEC3"
		},
		{
			"bufferView":12,
			"componentType":5126,
			"count":79,
			"type":"VEC2"
		},
		{
			"bufferView":13,
			"componentType":5126,
			"count":79,
			"type":"VEC2"
		},
		{
			"bufferView":14,
			"componentType":5123,
			"count":192,
			"type":"SCALAR"
		},
		{
			"bufferView":15,
			"componentType":5126,
			"count":79,
			"max":[
				1,
				0.7878196835517883,
				1
			],
			"min":[
				-1,
				0.7878196835517883,
				-1
			],
			"type":"VEC3"
		},
		{
			"bufferView":16,
			"componentType":5126,
			"count":79,
			"type":"VEC3"
		},
		{
			"bufferView":17,
			"componentType":5126,
			"count":79,
			"type":"VEC2"
		},
		{
			"bufferView":18,
			"componentType":5126,
			"count":79,
			"type":"VEC2"
		},
		{
			"bufferView":19,
			"componentType":5123,
			"count":192,
			"type":"SCALAR"
		},
		{
			"bufferView":20,
			"componentType":5126,
			"count":172,
			"max":[
				1.149852991104126,
				0.7878196835517883,
				1.149852991104126
			],
			"min":[
				-1.149852991104126,
				-0.7570308446884155,
				-1.149852991104126
			],
			"type":"VEC3"
		},
		{
			"bufferView":21,
			"componentType":5126,
			"count":172,
			"type":"VEC3"
		},
		{
			"bufferView":22,
			"componentType":5126,
			"count":172,
			"type":"VEC2"
		},
		{
			"bufferView":23,
			"componentType":5126,
			"count":172,
			"type":"VEC2"
		},
		{
			"bufferView":24,
			"componentType":5123,
			"count":420,
			"type":"SCALAR"
		}
	],
	"bufferViews":[
		{
			"buffer":0,
			"byteLength":4320,
			"byteOffset":0,
			"target":34962
		},
		{
			"buffer":0,
			"byteLength":4320,
			"byteOffset":4320,
			"target":34962
		},
		{
			"buffer":0,
			"byteLength":2880,
			"byteOffset":8640,
			"target":34962
		},
		{
			"buffer":0,
			"byteLength":2880,
			"byteOffset":11520,
			"target":34962
		},
		{
			"buffer":0,
			"byteLength":2100,
			"byteOffset":14400,
			"target":34963
		},
		{
			"buffer":0,
			"byteLength":3168,
			"byteOffset":16500,
			"target":34962
		},
		{
			"buffer":0,
			"byteLength":3168,
			"byteOffset":19668,
			"target":34962
		},
		{
			"buffer":0,
			"byteLength":2112,
			"byteOffset":22836,
			"target":34962
		},
		{
			"buffer":0,
			"byteLength":2112,
			"byteOffset":24948,
			"target":34962
		},
		{
			"buffer":0,
			"byteLength":1608,
			"byteOffset":27060,
			"target":34963
		},
		{
			"buffer":0,
			"byteLength":948,
			"byteOffset":28668,
			"target":34962
		},
		{
			"buffer":0,
			"byteLength":948,
			"byteOffset":29616,
			"target":34962
		},
		{
			"buffer":0,
			"byteLength":632,
			"byteOffset":30564,
			"target":34962
		},
		{
			"buffer":0,
			"byteLength":632,
			"byteOffset":31196,
			"target":34962
		},
		{
			"buffer":0,
			"byteLength":384,
			"byteOffset":31828,
			"target":34963
		},
		{
			"buffer":0,
			"byteLength":948,
			"byteOffset":32212,
			"target":34962
		},
		{
			"buffer":0,
			"byteLength":948,
			"byteOffset":33160,
			"target":34962
		},
		{
			"buffer":0,
			"byteLength":632,
			"byteOffset":34108,
			"target":34962
		},
		{
			"buffer":0,
			"byteLength":632,
			"byteOffset":34740,
			"target":34962
		},
		{
			"buffer":0,
			"byteLength":384,
			"byteOffset":35372,
			"target":34963
		},
		{
			"buffer":0,
			"byteLength":2064,
			"byteOffset":35756,
			"target":34962
		},
		{
			"buffer":0,
			"byteLength":2064,
			"byteOffset":37820,
			"target":34962
		},
		{
			"buffer":0,
			"byteLength":1376,
			"byteOffset":39884,
			"target":34962
		},
		{
			"buffer":0,
			"byteLength":1376,
			"byteOffset":41260,
			"target":34962
		},
		{
			"buffer":0,
			"byteLength":840,
			"byteOffset":42636,
			"target":34963
		}
	],
	"samplers":[
		{
			"magFilter":9729,
			"minFilter":9987
		}
	],
	"buffers":[
		{
			"byteLength":43476,
			"uri":"P%C3%B6yt%C3%A4.bin"
		}
	]
}
